<?xml version="1.0" encoding="UTF-8"?>
<svg version="1.1" viewBox="0 0 980 980" width="1280" height="1280" xmlns="http://www.w3.org/2000/svg">
<path transform="translate(474)" d="m0 0h32l19 4 16 6 15 8 11 8 10 9 7 7 11 15 8 15 7 21 3 18v256h255l19 3 18 6 16 8 13 9 12 11 9 10 10 15 8 17 5 17 2 12v30l-4 20-6 16-8 15-9 12-9 10-11 10-14 9-16 8-20 6-15 2h-37l-218-4v258l-3 19-5 16-9 19-10 14-12 13-12 10-15 9-16 7-14 4-12 2h-30l-20-4-16-6-15-8-12-9-10-9-10-11-10-15-7-15-6-20-2-13v-47l3-170 1-44-222 4h-37l-19-3-18-6-16-8-13-9-12-11-10-11-10-16-7-15-5-17-2-11v-32l4-19 6-16 8-15 8-11 9-10 7-7 15-11 16-8 16-6 14-3 9-1h259l-4-217v-39l3-18 6-18 8-16 9-13 11-12 11-10 16-10 15-7 17-5z" fill="#010101"/>
</svg>
